<svg viewBox="0 0 249.735 72.467" xmlns="http://www.w3.org/2000/svg"><g fill="#fff"><path d="m210.193 33.531v3.387c-.726-16.409-11.981-25.784-25.331-25.784a25.273 25.273 0 0 0 -18.413 8.074 44.269 44.269 0 0 1 -1.836 34.384 25.5 25.5 0 0 0 20.249 10.127c12.465 0 21.326-6.915 24.246-17.139h-13.73c-2.142 3.992-6.328 5.842-10.612 5.842-6.039 0-10.908-3.8-12.563-9.932h37.99v20.059h12.855v-29.018c0-6.187 4.133-10.3 10.6-10.306v-12.045c-14.807-.543-23.455 9.02-23.455 22.351zm-37.8-1.559c1.85-5.843 6.525-9.542 12.369-9.542a12.569 12.569 0 0 1 12.561 9.542z"/><path d="m136.9 39.209a1.668 1.668 0 0 0 -.9.264l-3.63-5.881a1.786 1.786 0 1 0 -1.949.161l-5.347 15.347a2.335 2.335 0 0 0 -.462-.046c-.075 0-.147.015-.22.022l-6.8-27.42a2.63 2.63 0 1 0 -2.992-.284l-8.471 18.425a3.22 3.22 0 0 0 -.342-.034 3.2 3.2 0 1 0 2.108.818l8.054-18.606a2.689 2.689 0 0 0 .325.032l7.4 27.243a2.336 2.336 0 1 0 1.991.07l5.235-15.374a1.74 1.74 0 0 0 .363.037 1.767 1.767 0 0 0 .72-.154l3.715 5.88a1.678 1.678 0 1 0 1.19-.495z"/><path d="m150.5 10.612a36.222 36.222 0 0 0 -56.38 6.479 31.153 31.153 0 1 1 3.39 40.038 31.015 31.015 0 0 1 -8.51-15.878 36.233 36.233 0 1 0 61.5-30.639z"/><path d="m82.427 46.5a11.887 11.887 0 0 1 -10 5.531c-7.109 0-12.855-6.525-12.855-14.412 0-8.084 5.746-14.7 12.855-14.7a11.956 11.956 0 0 1 8.863 4.093 43.875 43.875 0 0 1 4.131-12.66 26.347 26.347 0 0 0 -12.994-3.216 25.387 25.387 0 0 0 -25.1 19.778v-2.643c0-3.991-1.557-17.137-21.91-17.137-13.147 0-22.3 7.109-23.566 16.651h12.849c1.17-4.284 6.428-6.329 11-6.329 5.745 0 9.154 2.142 9.154 4.77 0 4.092-5.941 5.065-14.314 5.844-11.095.973-20.54 3.895-20.54 15.192 0 10.906 9.738 16.261 20.353 16.261 7.011 0 12.074-2.142 15.385-5.648a17.918 17.918 0 0 0 1.262 4.674h11.787a30.514 30.514 0 0 1 -1.46-8.18v-10.248a25.277 25.277 0 0 0 25.1 19.6 25.721 25.721 0 0 0 15.653-4.84c-.2-.344-.37-.709-.561-1.059a43.89 43.89 0 0 1 -5.092-11.322zm-47.078-3.426c0 6.426-6.233 9.057-13.926 9.057-5.159 0-8.471-1.95-8.471-4.772 0-3.7 3.9-5.064 10.223-5.746 5.26-.584 9.447-1.461 12.174-3.213z"/><path d="m243.568 11.134a6.215 6.215 0 0 1 -.024 12.429 6.215 6.215 0 1 1 0-12.429zm-.073 1.244a4.78 4.78 0 0 0 -4.635 4.951 4.764 4.764 0 0 0 4.708 4.947 4.69 4.69 0 0 0 4.612-4.91 4.768 4.768 0 0 0 -4.636-4.988zm-.923 8.164h-1.4v-6.2a16.314 16.314 0 0 1 2.319-.186 3.134 3.134 0 0 1 2.063.49 1.546 1.546 0 0 1 .631 1.324 1.6 1.6 0 0 1 -1.249 1.475v.072c.594.188.884.68 1.068 1.512a5.067 5.067 0 0 0 .448 1.512h-1.481a5.418 5.418 0 0 1 -.485-1.512c-.1-.644-.47-.941-1.249-.941h-.669zm.049-3.479h.656c.778 0 1.408-.261 1.408-.9 0-.572-.414-.949-1.287-.949a2.932 2.932 0 0 0 -.777.08z"/></g></svg>